{
	"patcher" : 	{
		"fileversion" : 1,
		"appversion" : 		{
			"major" : 8,
			"minor" : 2,
			"revision" : 2,
			"architecture" : "x64",
			"modernui" : 1
		}
,
		"classnamespace" : "box",
		"rect" : [ 103.0, 79.0, 1292.0, 1007.0 ],
		"bglocked" : 0,
		"openinpresentation" : 1,
		"default_fontsize" : 12.0,
		"default_fontface" : 0,
		"default_fontname" : "Arial",
		"gridonopen" : 1,
		"gridsize" : [ 15.0, 15.0 ],
		"gridsnaponopen" : 1,
		"objectsnaponopen" : 1,
		"statusbarvisible" : 2,
		"toolbarvisible" : 1,
		"lefttoolbarpinned" : 0,
		"toptoolbarpinned" : 0,
		"righttoolbarpinned" : 0,
		"bottomtoolbarpinned" : 0,
		"toolbars_unpinned_last_save" : 0,
		"tallnewobj" : 0,
		"boxanimatetime" : 200,
		"enablehscroll" : 1,
		"enablevscroll" : 1,
		"devicewidth" : 0.0,
		"description" : "",
		"digest" : "",
		"tags" : "",
		"style" : "",
		"subpatcher_template" : "",
		"assistshowspatchername" : 0,
		"boxes" : [ 			{
				"box" : 				{
					"fontsize" : 16.0,
					"id" : "obj-73",
					"maxclass" : "comment",
					"numinlets" : 1,
					"numoutlets" : 0,
					"patching_rect" : [ 1065.0, 917.5, 50.0, 24.0 ],
					"presentation" : 1,
					"presentation_rect" : [ 396.0, 192.489473684210566, 50.0, 24.0 ],
					"text" : "size-x"
				}

			}
, 			{
				"box" : 				{
					"id" : "obj-74",
					"maxclass" : "newobj",
					"numinlets" : 1,
					"numoutlets" : 2,
					"outlettype" : [ "", "" ],
					"patching_rect" : [ 809.0, 961.5, 299.0, 22.0 ],
					"text" : "variline #1/fly/size-x"
				}

			}
, 			{
				"box" : 				{
					"fontsize" : 12.0,
					"format" : 6,
					"id" : "obj-75",
					"maxclass" : "flonum",
					"maximum" : 1.0,
					"minimum" : 0.0,
					"numinlets" : 1,
					"numoutlets" : 2,
					"outlettype" : [ "", "bang" ],
					"parameter_enable" : 0,
					"patching_rect" : [ 1011.0, 917.5, 52.0, 22.0 ],
					"presentation" : 1,
					"presentation_rect" : [ 579.0, 191.415194346289752, 58.0, 22.0 ]
				}

			}
, 			{
				"box" : 				{
					"floatoutput" : 1,
					"id" : "obj-76",
					"maxclass" : "slider",
					"numinlets" : 1,
					"numoutlets" : 1,
					"outlettype" : [ "" ],
					"parameter_enable" : 0,
					"patching_rect" : [ 809.0, 917.5, 194.0, 31.0 ],
					"presentation" : 1,
					"presentation_rect" : [ 462.0, 191.191591982086038, 117.0, 22.0 ],
					"size" : 1.0
				}

			}
, 			{
				"box" : 				{
					"fontsize" : 16.0,
					"id" : "obj-69",
					"maxclass" : "comment",
					"numinlets" : 1,
					"numoutlets" : 0,
					"patching_rect" : [ 1065.0, 831.5, 50.0, 24.0 ],
					"presentation" : 1,
					"presentation_rect" : [ 396.0, 159.826315789473711, 50.0, 24.0 ],
					"text" : "size-y"
				}

			}
, 			{
				"box" : 				{
					"id" : "obj-70",
					"maxclass" : "newobj",
					"numinlets" : 1,
					"numoutlets" : 2,
					"outlettype" : [ "", "" ],
					"patching_rect" : [ 809.0, 875.5, 299.0, 22.0 ],
					"text" : "variline #1/fly/size-y"
				}

			}
, 			{
				"box" : 				{
					"fontsize" : 12.0,
					"format" : 6,
					"id" : "obj-71",
					"maxclass" : "flonum",
					"maximum" : 1.0,
					"minimum" : 0.0,
					"numinlets" : 1,
					"numoutlets" : 2,
					"outlettype" : [ "", "bang" ],
					"parameter_enable" : 0,
					"patching_rect" : [ 1011.0, 831.5, 52.0, 22.0 ],
					"presentation" : 1,
					"presentation_rect" : [ 579.0, 159.443462897526501, 58.0, 22.0 ]
				}

			}
, 			{
				"box" : 				{
					"floatoutput" : 1,
					"id" : "obj-72",
					"maxclass" : "slider",
					"numinlets" : 1,
					"numoutlets" : 1,
					"outlettype" : [ "" ],
					"parameter_enable" : 0,
					"patching_rect" : [ 809.0, 831.5, 194.0, 31.0 ],
					"presentation" : 1,
					"presentation_rect" : [ 462.0, 159.294394654724044, 117.0, 22.0 ],
					"size" : 1.0
				}

			}
, 			{
				"box" : 				{
					"fontsize" : 16.0,
					"id" : "obj-65",
					"maxclass" : "comment",
					"numinlets" : 1,
					"numoutlets" : 0,
					"patching_rect" : [ 1065.0, 742.5, 77.0, 24.0 ],
					"presentation" : 1,
					"presentation_rect" : [ 396.0, 127.163157894736855, 77.0, 24.0 ],
					"text" : "position-y"
				}

			}
, 			{
				"box" : 				{
					"id" : "obj-66",
					"maxclass" : "newobj",
					"numinlets" : 1,
					"numoutlets" : 2,
					"outlettype" : [ "", "" ],
					"patching_rect" : [ 809.0, 786.5, 299.0, 22.0 ],
					"text" : "variline #1/fly/position-y"
				}

			}
, 			{
				"box" : 				{
					"fontsize" : 12.0,
					"format" : 6,
					"id" : "obj-67",
					"maxclass" : "flonum",
					"maximum" : 100.0,
					"minimum" : -100.0,
					"numinlets" : 1,
					"numoutlets" : 2,
					"outlettype" : [ "", "bang" ],
					"parameter_enable" : 0,
					"patching_rect" : [ 1011.0, 742.5, 52.0, 22.0 ],
					"presentation" : 1,
					"presentation_rect" : [ 579.0, 127.471731448763251, 58.0, 22.0 ]
				}

			}
, 			{
				"box" : 				{
					"floatoutput" : 1,
					"id" : "obj-68",
					"maxclass" : "slider",
					"min" : -100.0,
					"mult" : 100.0,
					"numinlets" : 1,
					"numoutlets" : 1,
					"outlettype" : [ "" ],
					"parameter_enable" : 0,
					"patching_rect" : [ 809.0, 742.5, 194.0, 31.0 ],
					"presentation" : 1,
					"presentation_rect" : [ 462.0, 127.397197327362022, 117.0, 22.0 ],
					"size" : 1.0
				}

			}
, 			{
				"box" : 				{
					"fontsize" : 16.0,
					"id" : "obj-61",
					"maxclass" : "comment",
					"numinlets" : 1,
					"numoutlets" : 0,
					"patching_rect" : [ 1065.0, 656.5, 77.0, 24.0 ],
					"presentation" : 1,
					"presentation_rect" : [ 396.0, 94.5, 77.0, 24.0 ],
					"text" : "position-x"
				}

			}
, 			{
				"box" : 				{
					"id" : "obj-62",
					"maxclass" : "newobj",
					"numinlets" : 1,
					"numoutlets" : 2,
					"outlettype" : [ "", "" ],
					"patching_rect" : [ 809.0, 700.5, 299.0, 22.0 ],
					"text" : "variline #1/fly/position-x"
				}

			}
, 			{
				"box" : 				{
					"fontsize" : 12.0,
					"format" : 6,
					"id" : "obj-63",
					"maxclass" : "flonum",
					"maximum" : 100.0,
					"minimum" : -100.0,
					"numinlets" : 1,
					"numoutlets" : 2,
					"outlettype" : [ "", "bang" ],
					"parameter_enable" : 0,
					"patching_rect" : [ 1011.0, 656.5, 52.0, 22.0 ],
					"presentation" : 1,
					"presentation_rect" : [ 581.0, 95.5, 58.0, 22.0 ]
				}

			}
, 			{
				"box" : 				{
					"floatoutput" : 1,
					"id" : "obj-64",
					"maxclass" : "slider",
					"min" : -100.0,
					"mult" : 100.0,
					"numinlets" : 1,
					"numoutlets" : 1,
					"outlettype" : [ "" ],
					"parameter_enable" : 0,
					"patching_rect" : [ 809.0, 656.5, 194.0, 31.0 ],
					"presentation" : 1,
					"presentation_rect" : [ 462.0, 95.5, 117.0, 22.0 ],
					"size" : 1.0
				}

			}
, 			{
				"box" : 				{
					"id" : "obj-59",
					"maxclass" : "newobj",
					"numinlets" : 1,
					"numoutlets" : 2,
					"outlettype" : [ "", "" ],
					"patching_rect" : [ 801.0, 615.5, 299.0, 22.0 ],
					"text" : "var #1/fly/enable"
				}

			}
, 			{
				"box" : 				{
					"bgcolor" : [ 0.905882352941176, 0.905882352941176, 0.905882352941176, 1.0 ],
					"bgoncolor" : [ 0.0, 0.0, 0.0, 1.0 ],
					"fontsize" : 14.0,
					"id" : "obj-60",
					"maxclass" : "textbutton",
					"mode" : 1,
					"numinlets" : 1,
					"numoutlets" : 3,
					"outlettype" : [ "", "", "int" ],
					"parameter_enable" : 0,
					"patching_rect" : [ 801.0, 573.0, 163.0, 29.5 ],
					"presentation" : 1,
					"presentation_rect" : [ 511.0, 35.5, 100.0, 22.0 ],
					"rounded" : 12.0,
					"text" : "fly",
					"textcolor" : [ 0.0, 0.0, 0.0, 1.0 ],
					"texton" : "fly",
					"textoncolor" : [ 1.0, 1.0, 1.0, 1.0 ],
					"usebgoncolor" : 1
				}

			}
, 			{
				"box" : 				{
					"fontsize" : 16.0,
					"id" : "obj-53",
					"maxclass" : "comment",
					"numinlets" : 1,
					"numoutlets" : 0,
					"patching_rect" : [ 1065.0, 496.5, 62.0, 24.0 ],
					"presentation" : 1,
					"presentation_rect" : [ 396.0, 61.0, 62.0, 24.0 ],
					"text" : "rotation"
				}

			}
, 			{
				"box" : 				{
					"id" : "obj-54",
					"maxclass" : "newobj",
					"numinlets" : 1,
					"numoutlets" : 2,
					"outlettype" : [ "", "" ],
					"patching_rect" : [ 809.0, 531.5, 299.0, 22.0 ],
					"text" : "variline #1/fly/rotation"
				}

			}
, 			{
				"box" : 				{
					"fontsize" : 12.0,
					"format" : 6,
					"id" : "obj-57",
					"maxclass" : "flonum",
					"maximum" : 359.899999999999977,
					"minimum" : 0.0,
					"numinlets" : 1,
					"numoutlets" : 2,
					"outlettype" : [ "", "bang" ],
					"parameter_enable" : 0,
					"patching_rect" : [ 1011.0, 487.5, 52.0, 22.0 ],
					"presentation" : 1,
					"presentation_rect" : [ 581.0, 63.5, 58.0, 22.0 ]
				}

			}
, 			{
				"box" : 				{
					"floatoutput" : 1,
					"id" : "obj-58",
					"maxclass" : "slider",
					"numinlets" : 1,
					"numoutlets" : 1,
					"outlettype" : [ "" ],
					"parameter_enable" : 0,
					"patching_rect" : [ 809.0, 487.5, 194.0, 31.0 ],
					"presentation" : 1,
					"presentation_rect" : [ 462.0, 63.5, 117.0, 22.0 ],
					"size" : 359.899999999999977
				}

			}
, 			{
				"box" : 				{
					"fontname" : "Arial Bold Italic",
					"fontsize" : 18.0,
					"id" : "obj-10",
					"maxclass" : "comment",
					"numinlets" : 1,
					"numoutlets" : 0,
					"patching_rect" : [ 1077.0, 458.0, 51.0, 27.0 ],
					"presentation" : 1,
					"presentation_rect" : [ 403.0, 32.0, 51.0, 27.0 ],
					"text" : "fly"
				}

			}
, 			{
				"box" : 				{
					"angle" : 270.0,
					"bgcolor" : [ 0.2, 0.2, 0.2, 0.0 ],
					"border" : 1,
					"bordercolor" : [ 0.223529411764706, 0.223529411764706, 0.223529411764706, 1.0 ],
					"id" : "obj-13",
					"maxclass" : "panel",
					"mode" : 0,
					"numinlets" : 1,
					"numoutlets" : 0,
					"patching_rect" : [ 786.0, 453.0, 364.0, 543.0 ],
					"presentation" : 1,
					"presentation_rect" : [ 396.0, 32.0, 254.0, 197.5 ],
					"proportion" : 0.5,
					"rounded" : 12
				}

			}
, 			{
				"box" : 				{
					"id" : "obj-51",
					"maxclass" : "newobj",
					"numinlets" : 1,
					"numoutlets" : 2,
					"outlettype" : [ "", "" ],
					"patching_rect" : [ 38.5, 904.0, 299.0, 22.0 ],
					"text" : "var #1/chroma/narrow"
				}

			}
, 			{
				"box" : 				{
					"bgcolor" : [ 0.905882352941176, 0.905882352941176, 0.905882352941176, 1.0 ],
					"bgoncolor" : [ 0.0, 0.0, 0.0, 1.0 ],
					"fontsize" : 14.0,
					"id" : "obj-52",
					"maxclass" : "textbutton",
					"mode" : 1,
					"numinlets" : 1,
					"numoutlets" : 3,
					"outlettype" : [ "", "", "int" ],
					"parameter_enable" : 0,
					"patching_rect" : [ 38.5, 865.5, 163.0, 29.5 ],
					"presentation" : 1,
					"presentation_rect" : [ 321.5, 128.5, 59.5, 19.5 ],
					"rounded" : 12.0,
					"text" : "narrow",
					"textcolor" : [ 0.0, 0.0, 0.0, 1.0 ],
					"texton" : "narrow",
					"textoncolor" : [ 1.0, 1.0, 1.0, 1.0 ],
					"usebgoncolor" : 1
				}

			}
, 			{
				"box" : 				{
					"fontname" : "Arial Bold Italic",
					"fontsize" : 18.0,
					"id" : "obj-49",
					"maxclass" : "comment",
					"numinlets" : 1,
					"numoutlets" : 0,
					"patching_rect" : [ 34.5, 453.0, 74.0, 27.0 ],
					"presentation" : 1,
					"presentation_rect" : [ 159.0, 126.0, 74.0, 27.0 ],
					"text" : "chroma"
				}

			}
, 			{
				"box" : 				{
					"fontsize" : 16.0,
					"id" : "obj-45",
					"maxclass" : "comment",
					"numinlets" : 1,
					"numoutlets" : 0,
					"patching_rect" : [ 302.5, 773.5, 24.0, 24.0 ],
					"presentation" : 1,
					"presentation_rect" : [ 177.0, 231.5, 24.0, 24.0 ],
					"text" : "lift"
				}

			}
, 			{
				"box" : 				{
					"id" : "obj-46",
					"maxclass" : "newobj",
					"numinlets" : 1,
					"numoutlets" : 2,
					"outlettype" : [ "", "" ],
					"patching_rect" : [ 34.5, 817.5, 299.0, 22.0 ],
					"text" : "variline #1/chroma/lift"
				}

			}
, 			{
				"box" : 				{
					"fontsize" : 12.0,
					"format" : 6,
					"id" : "obj-47",
					"maxclass" : "flonum",
					"maximum" : 1.0,
					"minimum" : 0.0,
					"numinlets" : 1,
					"numoutlets" : 2,
					"outlettype" : [ "", "bang" ],
					"parameter_enable" : 0,
					"patching_rect" : [ 236.5, 773.5, 52.0, 22.0 ],
					"presentation" : 1,
					"presentation_rect" : [ 321.5, 231.5, 58.0, 22.0 ]
				}

			}
, 			{
				"box" : 				{
					"floatoutput" : 1,
					"id" : "obj-48",
					"maxclass" : "slider",
					"numinlets" : 1,
					"numoutlets" : 1,
					"outlettype" : [ "" ],
					"parameter_enable" : 0,
					"patching_rect" : [ 34.5, 773.5, 194.0, 31.0 ],
					"presentation" : 1,
					"presentation_rect" : [ 203.5, 231.5, 117.0, 22.0 ],
					"size" : 1.0
				}

			}
, 			{
				"box" : 				{
					"fontsize" : 16.0,
					"id" : "obj-41",
					"maxclass" : "comment",
					"numinlets" : 1,
					"numoutlets" : 0,
					"patching_rect" : [ 302.5, 684.5, 87.0, 24.0 ],
					"presentation" : 1,
					"presentation_rect" : [ 117.0, 205.5, 87.0, 24.0 ],
					"text" : "y-suppress"
				}

			}
, 			{
				"box" : 				{
					"id" : "obj-42",
					"maxclass" : "newobj",
					"numinlets" : 1,
					"numoutlets" : 2,
					"outlettype" : [ "", "" ],
					"patching_rect" : [ 34.5, 728.5, 299.0, 22.0 ],
					"text" : "variline #1/chroma/y-suppress"
				}

			}
, 			{
				"box" : 				{
					"fontsize" : 12.0,
					"format" : 6,
					"id" : "obj-43",
					"maxclass" : "flonum",
					"maximum" : 1.0,
					"minimum" : 0.0,
					"numinlets" : 1,
					"numoutlets" : 2,
					"outlettype" : [ "", "bang" ],
					"parameter_enable" : 0,
					"patching_rect" : [ 236.5, 684.5, 52.0, 22.0 ],
					"presentation" : 1,
					"presentation_rect" : [ 321.5, 205.5, 58.0, 22.0 ]
				}

			}
, 			{
				"box" : 				{
					"floatoutput" : 1,
					"id" : "obj-44",
					"maxclass" : "slider",
					"numinlets" : 1,
					"numoutlets" : 1,
					"outlettype" : [ "" ],
					"parameter_enable" : 0,
					"patching_rect" : [ 34.5, 684.5, 194.0, 31.0 ],
					"presentation" : 1,
					"presentation_rect" : [ 203.5, 205.5, 117.0, 22.0 ],
					"size" : 1.0
				}

			}
, 			{
				"box" : 				{
					"fontsize" : 16.0,
					"id" : "obj-37",
					"maxclass" : "comment",
					"numinlets" : 1,
					"numoutlets" : 0,
					"patching_rect" : [ 296.5, 590.5, 39.0, 24.0 ],
					"presentation" : 1,
					"presentation_rect" : [ 163.5, 177.5, 39.0, 24.0 ],
					"text" : "gain"
				}

			}
, 			{
				"box" : 				{
					"id" : "obj-38",
					"maxclass" : "newobj",
					"numinlets" : 1,
					"numoutlets" : 2,
					"outlettype" : [ "", "" ],
					"patching_rect" : [ 28.5, 634.5, 299.0, 22.0 ],
					"text" : "variline #1/chroma/gain"
				}

			}
, 			{
				"box" : 				{
					"fontsize" : 12.0,
					"format" : 6,
					"id" : "obj-39",
					"maxclass" : "flonum",
					"maximum" : 1.0,
					"minimum" : 0.0,
					"numinlets" : 1,
					"numoutlets" : 2,
					"outlettype" : [ "", "bang" ],
					"parameter_enable" : 0,
					"patching_rect" : [ 230.5, 590.5, 52.0, 22.0 ],
					"presentation" : 1,
					"presentation_rect" : [ 321.5, 178.5, 58.0, 22.0 ]
				}

			}
, 			{
				"box" : 				{
					"floatoutput" : 1,
					"id" : "obj-40",
					"maxclass" : "slider",
					"numinlets" : 1,
					"numoutlets" : 1,
					"outlettype" : [ "" ],
					"parameter_enable" : 0,
					"patching_rect" : [ 28.5, 590.5, 194.0, 31.0 ],
					"presentation" : 1,
					"presentation_rect" : [ 203.5, 178.5, 117.0, 22.0 ],
					"size" : 1.0
				}

			}
, 			{
				"box" : 				{
					"fontsize" : 16.0,
					"id" : "obj-33",
					"maxclass" : "comment",
					"numinlets" : 1,
					"numoutlets" : 0,
					"patching_rect" : [ 296.5, 496.5, 35.0, 24.0 ],
					"presentation" : 1,
					"presentation_rect" : [ 163.5, 151.5, 35.0, 24.0 ],
					"text" : "hue"
				}

			}
, 			{
				"box" : 				{
					"id" : "obj-34",
					"maxclass" : "newobj",
					"numinlets" : 1,
					"numoutlets" : 2,
					"outlettype" : [ "", "" ],
					"patching_rect" : [ 28.5, 540.5, 299.0, 22.0 ],
					"text" : "variline #1/chroma/hue"
				}

			}
, 			{
				"box" : 				{
					"fontsize" : 12.0,
					"format" : 6,
					"id" : "obj-35",
					"maxclass" : "flonum",
					"maximum" : 359.899999999999977,
					"minimum" : 0.0,
					"numinlets" : 1,
					"numoutlets" : 2,
					"outlettype" : [ "", "bang" ],
					"parameter_enable" : 0,
					"patching_rect" : [ 230.5, 496.5, 52.0, 22.0 ],
					"presentation" : 1,
					"presentation_rect" : [ 321.5, 151.5, 58.0, 22.0 ]
				}

			}
, 			{
				"box" : 				{
					"floatoutput" : 1,
					"id" : "obj-36",
					"maxclass" : "slider",
					"numinlets" : 1,
					"numoutlets" : 1,
					"outlettype" : [ "" ],
					"parameter_enable" : 0,
					"patching_rect" : [ 28.5, 496.5, 194.0, 31.0 ],
					"presentation" : 1,
					"presentation_rect" : [ 203.5, 151.5, 117.0, 22.0 ],
					"size" : 359.899999999999977
				}

			}
, 			{
				"box" : 				{
					"id" : "obj-31",
					"maxclass" : "newobj",
					"numinlets" : 1,
					"numoutlets" : 2,
					"outlettype" : [ "", "" ],
					"patching_rect" : [ 423.0, 505.5, 299.0, 22.0 ],
					"text" : "var #1/luma/pre-multiplied"
				}

			}
, 			{
				"box" : 				{
					"bgcolor" : [ 0.905882352941176, 0.905882352941176, 0.905882352941176, 1.0 ],
					"bgoncolor" : [ 0.0, 0.0, 0.0, 1.0 ],
					"fontsize" : 14.0,
					"id" : "obj-32",
					"maxclass" : "textbutton",
					"mode" : 1,
					"numinlets" : 1,
					"numoutlets" : 3,
					"outlettype" : [ "", "", "int" ],
					"parameter_enable" : 0,
					"patching_rect" : [ 423.0, 463.0, 163.0, 29.5 ],
					"presentation" : 1,
					"presentation_rect" : [ 279.5, 35.5, 100.0, 22.0 ],
					"rounded" : 12.0,
					"text" : "pre-multiplied",
					"textcolor" : [ 0.0, 0.0, 0.0, 1.0 ],
					"texton" : "pre-multiplied",
					"textoncolor" : [ 1.0, 1.0, 1.0, 1.0 ],
					"usebgoncolor" : 1
				}

			}
, 			{
				"box" : 				{
					"fontname" : "Arial Bold Italic",
					"fontsize" : 18.0,
					"id" : "obj-29",
					"maxclass" : "comment",
					"numinlets" : 1,
					"numoutlets" : 0,
					"patching_rect" : [ 704.0, 458.0, 51.0, 27.0 ],
					"presentation" : 1,
					"presentation_rect" : [ 163.5, 33.0, 51.0, 27.0 ],
					"text" : "luma"
				}

			}
, 			{
				"box" : 				{
					"id" : "obj-28",
					"maxclass" : "newobj",
					"numinlets" : 1,
					"numoutlets" : 2,
					"outlettype" : [ "", "" ],
					"patching_rect" : [ 423.0, 535.5, 299.0, 22.0 ],
					"text" : "var #1/luma/inverse"
				}

			}
, 			{
				"box" : 				{
					"bgcolor" : [ 0.905882352941176, 0.905882352941176, 0.905882352941176, 1.0 ],
					"bgoncolor" : [ 0.0, 0.0, 0.0, 1.0 ],
					"fontsize" : 14.0,
					"id" : "obj-27",
					"maxclass" : "textbutton",
					"mode" : 1,
					"numinlets" : 1,
					"numoutlets" : 3,
					"outlettype" : [ "", "", "int" ],
					"parameter_enable" : 0,
					"patching_rect" : [ 423.0, 568.0, 163.0, 29.5 ],
					"presentation" : 1,
					"presentation_rect" : [ 218.0, 35.5, 59.5, 22.0 ],
					"rounded" : 12.0,
					"text" : "invert",
					"textcolor" : [ 0.0, 0.0, 0.0, 1.0 ],
					"texton" : "invert",
					"textoncolor" : [ 1.0, 1.0, 1.0, 1.0 ],
					"usebgoncolor" : 1
				}

			}
, 			{
				"box" : 				{
					"bgcolor" : [ 0.905882352941176, 0.905882352941176, 0.905882352941176, 1.0 ],
					"bgoncolor" : [ 1.0, 0.933333333333333, 0.0, 1.0 ],
					"fontsize" : 12.0,
					"id" : "obj-25",
					"maxclass" : "textbutton",
					"mode" : 1,
					"numinlets" : 1,
					"numoutlets" : 3,
					"outlettype" : [ "", "", "int" ],
					"parameter_enable" : 0,
					"patching_rect" : [ 289.0, 60.0, 54.0, 30.0 ],
					"presentation" : 1,
					"presentation_rect" : [ 339.0, 2.0, 54.0, 27.5 ],
					"rounded" : 20.0,
					"text" : "KEY",
					"textcolor" : [ 0.0, 0.0, 0.0, 1.0 ],
					"texton" : "KEY",
					"textoncolor" : [ 0.0, 0.0, 0.0, 1.0 ],
					"usebgoncolor" : 1
				}

			}
, 			{
				"box" : 				{
					"id" : "obj-26",
					"maxclass" : "newobj",
					"numinlets" : 1,
					"numoutlets" : 2,
					"outlettype" : [ "", "" ],
					"patching_rect" : [ 289.0, 98.0, 260.0, 22.0 ],
					"text" : "var #1/tie"
				}

			}
, 			{
				"box" : 				{
					"fontsize" : 16.0,
					"id" : "obj-12",
					"maxclass" : "comment",
					"numinlets" : 1,
					"numoutlets" : 0,
					"patching_rect" : [ 23.0, 146.0, 42.0, 24.0 ],
					"presentation" : 1,
					"presentation_rect" : [ 2.0, 35.5, 42.0, 24.0 ],
					"text" : "type"
				}

			}
, 			{
				"box" : 				{
					"id" : "obj-16",
					"maxclass" : "newobj",
					"numinlets" : 1,
					"numoutlets" : 2,
					"outlettype" : [ "", "" ],
					"patching_rect" : [ 136.5, 154.0, 312.0, 22.0 ],
					"text" : "var #1/type"
				}

			}
, 			{
				"box" : 				{
					"fontsize" : 16.0,
					"id" : "obj-24",
					"items" : [ "luma", ",", "chroma", ",", "pattern", ",", "dve" ],
					"maxclass" : "umenu",
					"numinlets" : 1,
					"numoutlets" : 3,
					"outlettype" : [ "int", "", "" ],
					"parameter_enable" : 0,
					"patching_rect" : [ 17.0, 109.0, 258.0, 26.0 ],
					"presentation" : 1,
					"presentation_rect" : [ 49.5, 35.5, 105.0, 26.0 ]
				}

			}
, 			{
				"box" : 				{
					"fontsize" : 16.0,
					"id" : "obj-20",
					"maxclass" : "comment",
					"numinlets" : 1,
					"numoutlets" : 0,
					"patching_rect" : [ 704.0, 703.0, 42.0, 24.0 ],
					"presentation" : 1,
					"presentation_rect" : [ 163.5, 63.5, 33.0, 24.0 ],
					"text" : "clip"
				}

			}
, 			{
				"box" : 				{
					"id" : "obj-21",
					"maxclass" : "newobj",
					"numinlets" : 1,
					"numoutlets" : 2,
					"outlettype" : [ "", "" ],
					"patching_rect" : [ 436.0, 747.0, 299.0, 22.0 ],
					"text" : "variline #1/luma/clip"
				}

			}
, 			{
				"box" : 				{
					"fontsize" : 12.0,
					"format" : 6,
					"id" : "obj-22",
					"maxclass" : "flonum",
					"maximum" : 1.0,
					"minimum" : 0.0,
					"numinlets" : 1,
					"numoutlets" : 2,
					"outlettype" : [ "", "bang" ],
					"parameter_enable" : 0,
					"patching_rect" : [ 638.0, 703.0, 52.0, 22.0 ],
					"presentation" : 1,
					"presentation_rect" : [ 324.0, 63.5, 58.0, 22.0 ]
				}

			}
, 			{
				"box" : 				{
					"fontsize" : 16.0,
					"id" : "obj-19",
					"maxclass" : "comment",
					"numinlets" : 1,
					"numoutlets" : 0,
					"patching_rect" : [ 704.0, 612.5, 42.0, 24.0 ],
					"presentation" : 1,
					"presentation_rect" : [ 163.5, 94.5, 39.0, 24.0 ],
					"text" : "gain"
				}

			}
, 			{
				"box" : 				{
					"fontsize" : 16.0,
					"id" : "obj-18",
					"maxclass" : "comment",
					"numinlets" : 1,
					"numoutlets" : 0,
					"patching_rect" : [ 297.5, 328.0, 44.0, 24.0 ],
					"presentation" : 1,
					"presentation_rect" : [ 2.0, 94.5, 44.0, 24.0 ],
					"text" : "cut"
				}

			}
, 			{
				"box" : 				{
					"fontsize" : 16.0,
					"id" : "obj-17",
					"maxclass" : "comment",
					"numinlets" : 1,
					"numoutlets" : 0,
					"patching_rect" : [ 303.5, 250.0, 43.0, 24.0 ],
					"presentation" : 1,
					"presentation_rect" : [ 2.0, 65.5, 43.0, 24.0 ],
					"text" : "Fill"
				}

			}
, 			{
				"box" : 				{
					"id" : "obj-15",
					"maxclass" : "newobj",
					"numinlets" : 1,
					"numoutlets" : 2,
					"outlettype" : [ "", "" ],
					"patching_rect" : [ 436.0, 656.5, 299.0, 22.0 ],
					"text" : "variline #1/luma/gain"
				}

			}
, 			{
				"box" : 				{
					"fontsize" : 12.0,
					"format" : 6,
					"id" : "obj-14",
					"maxclass" : "flonum",
					"maximum" : 1.0,
					"minimum" : 0.0,
					"numinlets" : 1,
					"numoutlets" : 2,
					"outlettype" : [ "", "bang" ],
					"parameter_enable" : 0,
					"patching_rect" : [ 638.0, 612.5, 52.0, 22.0 ],
					"presentation" : 1,
					"presentation_rect" : [ 324.0, 94.5, 58.0, 22.0 ]
				}

			}
, 			{
				"box" : 				{
					"floatoutput" : 1,
					"id" : "obj-11",
					"maxclass" : "slider",
					"numinlets" : 1,
					"numoutlets" : 1,
					"outlettype" : [ "" ],
					"parameter_enable" : 0,
					"patching_rect" : [ 436.0, 612.5, 194.0, 31.0 ],
					"presentation" : 1,
					"presentation_rect" : [ 203.5, 94.5, 117.0, 22.0 ],
					"size" : 1.0
				}

			}
, 			{
				"box" : 				{
					"id" : "obj-8",
					"maxclass" : "newobj",
					"numinlets" : 1,
					"numoutlets" : 2,
					"outlettype" : [ "", "" ],
					"patching_rect" : [ 34.5, 362.0, 312.0, 22.0 ],
					"text" : "var #1/source/cut"
				}

			}
, 			{
				"box" : 				{
					"fontsize" : 16.0,
					"id" : "obj-9",
					"items" : [ "black", ",", "face", ",", "C1", ",", "C2", ",", "Cam1", ",", "Cam1-lut", ",", "Cam2", ",", "Cam2-lut" ],
					"maxclass" : "umenu",
					"numinlets" : 1,
					"numoutlets" : 3,
					"outlettype" : [ "int", "", "" ],
					"parameter_enable" : 0,
					"patching_rect" : [ 34.5, 326.0, 258.0, 26.0 ],
					"presentation" : 1,
					"presentation_rect" : [ 49.5, 94.5, 105.0, 26.0 ]
				}

			}
, 			{
				"box" : 				{
					"id" : "obj-7",
					"maxclass" : "newobj",
					"numinlets" : 1,
					"numoutlets" : 2,
					"outlettype" : [ "", "" ],
					"patching_rect" : [ 34.5, 279.0, 312.0, 22.0 ],
					"text" : "var #1/source/fill"
				}

			}
, 			{
				"box" : 				{
					"fontsize" : 16.0,
					"id" : "obj-5",
					"items" : [ "black", ",", "face", ",", "C1", ",", "C2", ",", "Cam1", ",", "Cam1-lut", ",", "Cam2", ",", "Cam2-lut" ],
					"maxclass" : "umenu",
					"numinlets" : 1,
					"numoutlets" : 3,
					"outlettype" : [ "int", "", "" ],
					"parameter_enable" : 0,
					"patching_rect" : [ 34.5, 244.0, 258.0, 26.0 ],
					"presentation" : 1,
					"presentation_rect" : [ 49.5, 65.5, 105.0, 26.0 ]
				}

			}
, 			{
				"box" : 				{
					"bgcolor" : [ 0.905882352941176, 0.905882352941176, 0.905882352941176, 1.0 ],
					"bgoncolor" : [ 0.76078431372549, 0.0, 0.0, 1.0 ],
					"fontsize" : 12.0,
					"id" : "obj-55",
					"maxclass" : "textbutton",
					"mode" : 1,
					"numinlets" : 1,
					"numoutlets" : 3,
					"outlettype" : [ "", "", "int" ],
					"parameter_enable" : 0,
					"patching_rect" : [ 367.0, 19.0, 54.0, 30.0 ],
					"presentation" : 1,
					"presentation_rect" : [ 279.5, 2.0, 54.0, 27.5 ],
					"rounded" : 20.0,
					"text" : "ON-AIR",
					"textcolor" : [ 0.0, 0.0, 0.0, 1.0 ],
					"texton" : "ON-AIR",
					"usebgoncolor" : 1
				}

			}
, 			{
				"box" : 				{
					"id" : "obj-56",
					"maxclass" : "newobj",
					"numinlets" : 1,
					"numoutlets" : 2,
					"outlettype" : [ "", "" ],
					"patching_rect" : [ 367.0, 60.0, 278.0, 22.0 ],
					"text" : "var #1/on-air"
				}

			}
, 			{
				"box" : 				{
					"fontname" : "Arial Bold Italic",
					"fontsize" : 18.0,
					"id" : "obj-4",
					"maxclass" : "comment",
					"numinlets" : 1,
					"numoutlets" : 0,
					"patching_rect" : [ 8.0, 68.0, 29.0, 27.0 ],
					"presentation" : 1,
					"presentation_rect" : [ 2.0, 0.0, 317.0, 27.0 ],
					"text" : "#1"
				}

			}
, 			{
				"box" : 				{
					"id" : "obj-2",
					"maxclass" : "newobj",
					"numinlets" : 1,
					"numoutlets" : 1,
					"outlettype" : [ "" ],
					"patching_rect" : [ 8.0, 36.0, 72.0, 22.0 ],
					"text" : "prepend set"
				}

			}
, 			{
				"box" : 				{
					"id" : "obj-1",
					"maxclass" : "newobj",
					"numinlets" : 1,
					"numoutlets" : 1,
					"outlettype" : [ "" ],
					"patching_rect" : [ 8.0, 8.0, 254.0, 22.0 ],
					"text" : "loadmess #1"
				}

			}
, 			{
				"box" : 				{
					"floatoutput" : 1,
					"id" : "obj-23",
					"maxclass" : "slider",
					"numinlets" : 1,
					"numoutlets" : 1,
					"outlettype" : [ "" ],
					"parameter_enable" : 0,
					"patching_rect" : [ 436.0, 703.0, 194.0, 31.0 ],
					"presentation" : 1,
					"presentation_rect" : [ 203.5, 63.5, 117.0, 22.0 ],
					"size" : 1.0
				}

			}
, 			{
				"box" : 				{
					"angle" : 270.0,
					"bgcolor" : [ 0.2, 0.2, 0.2, 0.0 ],
					"border" : 1,
					"bordercolor" : [ 0.223529411764706, 0.223529411764706, 0.223529411764706, 1.0 ],
					"id" : "obj-30",
					"maxclass" : "panel",
					"mode" : 0,
					"numinlets" : 1,
					"numoutlets" : 0,
					"patching_rect" : [ 413.0, 453.0, 364.0, 331.0 ],
					"presentation" : 1,
					"presentation_rect" : [ 159.0, 32.0, 236.0, 92.0 ],
					"proportion" : 0.5,
					"rounded" : 12
				}

			}
, 			{
				"box" : 				{
					"angle" : 270.0,
					"bgcolor" : [ 0.2, 0.2, 0.2, 0.0 ],
					"border" : 1,
					"bordercolor" : [ 0.223529411764706, 0.223529411764706, 0.223529411764706, 1.0 ],
					"id" : "obj-50",
					"maxclass" : "panel",
					"mode" : 0,
					"numinlets" : 1,
					"numoutlets" : 0,
					"patching_rect" : [ 17.0, 453.0, 387.0, 483.0 ],
					"presentation" : 1,
					"presentation_rect" : [ 159.0, 127.0, 236.0, 132.0 ],
					"proportion" : 0.5,
					"rounded" : 12
				}

			}
 ],
		"lines" : [ 			{
				"patchline" : 				{
					"destination" : [ "obj-2", 0 ],
					"source" : [ "obj-1", 0 ]
				}

			}
, 			{
				"patchline" : 				{
					"destination" : [ "obj-15", 0 ],
					"source" : [ "obj-11", 0 ]
				}

			}
, 			{
				"patchline" : 				{
					"destination" : [ "obj-15", 0 ],
					"source" : [ "obj-14", 0 ]
				}

			}
, 			{
				"patchline" : 				{
					"destination" : [ "obj-11", 0 ],
					"midpoints" : [ 445.5, 691.5, 421.0, 691.5, 421.0, 598.5, 445.5, 598.5 ],
					"order" : 1,
					"source" : [ "obj-15", 0 ]
				}

			}
, 			{
				"patchline" : 				{
					"destination" : [ "obj-14", 0 ],
					"midpoints" : [ 445.5, 688.5, 758.5, 688.5, 758.5, 601.5, 647.5, 601.5 ],
					"order" : 0,
					"source" : [ "obj-15", 0 ]
				}

			}
, 			{
				"patchline" : 				{
					"destination" : [ "obj-24", 0 ],
					"midpoints" : [ 146.0, 200.0, 4.0, 200.0, 4.0, 104.0, 26.5, 104.0 ],
					"source" : [ "obj-16", 0 ]
				}

			}
, 			{
				"patchline" : 				{
					"destination" : [ "obj-4", 0 ],
					"source" : [ "obj-2", 0 ]
				}

			}
, 			{
				"patchline" : 				{
					"destination" : [ "obj-22", 0 ],
					"midpoints" : [ 445.5, 779.0, 756.5, 779.0, 756.5, 692.0, 647.5, 692.0 ],
					"order" : 0,
					"source" : [ "obj-21", 0 ]
				}

			}
, 			{
				"patchline" : 				{
					"destination" : [ "obj-23", 0 ],
					"midpoints" : [ 445.5, 782.0, 421.0, 782.0, 421.0, 689.0, 445.5, 689.0 ],
					"order" : 1,
					"source" : [ "obj-21", 0 ]
				}

			}
, 			{
				"patchline" : 				{
					"destination" : [ "obj-21", 0 ],
					"source" : [ "obj-22", 0 ]
				}

			}
, 			{
				"patchline" : 				{
					"destination" : [ "obj-21", 0 ],
					"source" : [ "obj-23", 0 ]
				}

			}
, 			{
				"patchline" : 				{
					"destination" : [ "obj-16", 0 ],
					"source" : [ "obj-24", 1 ]
				}

			}
, 			{
				"patchline" : 				{
					"destination" : [ "obj-26", 0 ],
					"source" : [ "obj-25", 0 ]
				}

			}
, 			{
				"patchline" : 				{
					"destination" : [ "obj-25", 0 ],
					"midpoints" : [ 298.5, 128.0, 273.5, 128.0, 273.5, 56.0, 298.5, 56.0 ],
					"source" : [ "obj-26", 0 ]
				}

			}
, 			{
				"patchline" : 				{
					"destination" : [ "obj-28", 0 ],
					"source" : [ "obj-27", 0 ]
				}

			}
, 			{
				"patchline" : 				{
					"destination" : [ "obj-27", 0 ],
					"source" : [ "obj-28", 0 ]
				}

			}
, 			{
				"patchline" : 				{
					"destination" : [ "obj-32", 0 ],
					"source" : [ "obj-31", 0 ]
				}

			}
, 			{
				"patchline" : 				{
					"destination" : [ "obj-31", 0 ],
					"source" : [ "obj-32", 0 ]
				}

			}
, 			{
				"patchline" : 				{
					"destination" : [ "obj-35", 0 ],
					"midpoints" : [ 38.0, 572.5, 349.0, 572.5, 349.0, 485.5, 240.0, 485.5 ],
					"order" : 0,
					"source" : [ "obj-34", 0 ]
				}

			}
, 			{
				"patchline" : 				{
					"destination" : [ "obj-36", 0 ],
					"midpoints" : [ 38.0, 575.5, 13.5, 575.5, 13.5, 482.5, 38.0, 482.5 ],
					"order" : 1,
					"source" : [ "obj-34", 0 ]
				}

			}
, 			{
				"patchline" : 				{
					"destination" : [ "obj-34", 0 ],
					"source" : [ "obj-35", 0 ]
				}

			}
, 			{
				"patchline" : 				{
					"destination" : [ "obj-34", 0 ],
					"source" : [ "obj-36", 0 ]
				}

			}
, 			{
				"patchline" : 				{
					"destination" : [ "obj-39", 0 ],
					"midpoints" : [ 38.0, 666.5, 349.0, 666.5, 349.0, 579.5, 240.0, 579.5 ],
					"order" : 0,
					"source" : [ "obj-38", 0 ]
				}

			}
, 			{
				"patchline" : 				{
					"destination" : [ "obj-40", 0 ],
					"midpoints" : [ 38.0, 669.5, 13.5, 669.5, 13.5, 576.5, 38.0, 576.5 ],
					"order" : 1,
					"source" : [ "obj-38", 0 ]
				}

			}
, 			{
				"patchline" : 				{
					"destination" : [ "obj-38", 0 ],
					"source" : [ "obj-39", 0 ]
				}

			}
, 			{
				"patchline" : 				{
					"destination" : [ "obj-38", 0 ],
					"source" : [ "obj-40", 0 ]
				}

			}
, 			{
				"patchline" : 				{
					"destination" : [ "obj-43", 0 ],
					"midpoints" : [ 44.0, 760.5, 355.0, 760.5, 355.0, 673.5, 246.0, 673.5 ],
					"order" : 0,
					"source" : [ "obj-42", 0 ]
				}

			}
, 			{
				"patchline" : 				{
					"destination" : [ "obj-44", 0 ],
					"midpoints" : [ 44.0, 763.5, 19.5, 763.5, 19.5, 670.5, 44.0, 670.5 ],
					"order" : 1,
					"source" : [ "obj-42", 0 ]
				}

			}
, 			{
				"patchline" : 				{
					"destination" : [ "obj-42", 0 ],
					"source" : [ "obj-43", 0 ]
				}

			}
, 			{
				"patchline" : 				{
					"destination" : [ "obj-42", 0 ],
					"source" : [ "obj-44", 0 ]
				}

			}
, 			{
				"patchline" : 				{
					"destination" : [ "obj-47", 0 ],
					"midpoints" : [ 44.0, 849.5, 355.0, 849.5, 355.0, 762.5, 246.0, 762.5 ],
					"order" : 0,
					"source" : [ "obj-46", 0 ]
				}

			}
, 			{
				"patchline" : 				{
					"destination" : [ "obj-48", 0 ],
					"midpoints" : [ 44.0, 852.5, 19.5, 852.5, 19.5, 759.5, 44.0, 759.5 ],
					"order" : 1,
					"source" : [ "obj-46", 0 ]
				}

			}
, 			{
				"patchline" : 				{
					"destination" : [ "obj-46", 0 ],
					"source" : [ "obj-47", 0 ]
				}

			}
, 			{
				"patchline" : 				{
					"destination" : [ "obj-46", 0 ],
					"source" : [ "obj-48", 0 ]
				}

			}
, 			{
				"patchline" : 				{
					"destination" : [ "obj-7", 0 ],
					"source" : [ "obj-5", 0 ]
				}

			}
, 			{
				"patchline" : 				{
					"destination" : [ "obj-52", 0 ],
					"source" : [ "obj-51", 0 ]
				}

			}
, 			{
				"patchline" : 				{
					"destination" : [ "obj-51", 0 ],
					"source" : [ "obj-52", 0 ]
				}

			}
, 			{
				"patchline" : 				{
					"destination" : [ "obj-57", 0 ],
					"midpoints" : [ 818.5, 563.5, 1131.5, 563.5, 1131.5, 476.5, 1020.5, 476.5 ],
					"order" : 0,
					"source" : [ "obj-54", 0 ]
				}

			}
, 			{
				"patchline" : 				{
					"destination" : [ "obj-58", 0 ],
					"midpoints" : [ 818.5, 566.5, 794.0, 566.5, 794.0, 473.5, 818.5, 473.5 ],
					"order" : 1,
					"source" : [ "obj-54", 0 ]
				}

			}
, 			{
				"patchline" : 				{
					"destination" : [ "obj-56", 0 ],
					"source" : [ "obj-55", 0 ]
				}

			}
, 			{
				"patchline" : 				{
					"destination" : [ "obj-55", 0 ],
					"midpoints" : [ 376.5, 93.0, 351.5, 93.0, 351.5, 15.0, 376.5, 15.0 ],
					"source" : [ "obj-56", 0 ]
				}

			}
, 			{
				"patchline" : 				{
					"destination" : [ "obj-54", 0 ],
					"source" : [ "obj-57", 0 ]
				}

			}
, 			{
				"patchline" : 				{
					"destination" : [ "obj-54", 0 ],
					"source" : [ "obj-58", 0 ]
				}

			}
, 			{
				"patchline" : 				{
					"destination" : [ "obj-60", 0 ],
					"source" : [ "obj-59", 0 ]
				}

			}
, 			{
				"patchline" : 				{
					"destination" : [ "obj-59", 0 ],
					"source" : [ "obj-60", 0 ]
				}

			}
, 			{
				"patchline" : 				{
					"destination" : [ "obj-63", 0 ],
					"midpoints" : [ 818.5, 732.5, 1131.5, 732.5, 1131.5, 645.5, 1020.5, 645.5 ],
					"order" : 0,
					"source" : [ "obj-62", 0 ]
				}

			}
, 			{
				"patchline" : 				{
					"destination" : [ "obj-64", 0 ],
					"midpoints" : [ 818.5, 735.5, 794.0, 735.5, 794.0, 642.5, 818.5, 642.5 ],
					"order" : 1,
					"source" : [ "obj-62", 0 ]
				}

			}
, 			{
				"patchline" : 				{
					"destination" : [ "obj-62", 0 ],
					"source" : [ "obj-63", 0 ]
				}

			}
, 			{
				"patchline" : 				{
					"destination" : [ "obj-62", 0 ],
					"source" : [ "obj-64", 0 ]
				}

			}
, 			{
				"patchline" : 				{
					"destination" : [ "obj-67", 0 ],
					"midpoints" : [ 818.5, 818.5, 1131.5, 818.5, 1131.5, 731.5, 1020.5, 731.5 ],
					"order" : 0,
					"source" : [ "obj-66", 0 ]
				}

			}
, 			{
				"patchline" : 				{
					"destination" : [ "obj-68", 0 ],
					"midpoints" : [ 818.5, 821.5, 794.0, 821.5, 794.0, 728.5, 818.5, 728.5 ],
					"order" : 1,
					"source" : [ "obj-66", 0 ]
				}

			}
, 			{
				"patchline" : 				{
					"destination" : [ "obj-66", 0 ],
					"source" : [ "obj-67", 0 ]
				}

			}
, 			{
				"patchline" : 				{
					"destination" : [ "obj-66", 0 ],
					"source" : [ "obj-68", 0 ]
				}

			}
, 			{
				"patchline" : 				{
					"destination" : [ "obj-5", 0 ],
					"midpoints" : [ 44.0, 315.0, 21.5, 315.0, 21.5, 239.0, 44.0, 239.0 ],
					"source" : [ "obj-7", 0 ]
				}

			}
, 			{
				"patchline" : 				{
					"destination" : [ "obj-71", 0 ],
					"midpoints" : [ 818.5, 907.5, 1131.5, 907.5, 1131.5, 820.5, 1020.5, 820.5 ],
					"order" : 0,
					"source" : [ "obj-70", 0 ]
				}

			}
, 			{
				"patchline" : 				{
					"destination" : [ "obj-72", 0 ],
					"midpoints" : [ 818.5, 910.5, 794.0, 910.5, 794.0, 817.5, 818.5, 817.5 ],
					"order" : 1,
					"source" : [ "obj-70", 0 ]
				}

			}
, 			{
				"patchline" : 				{
					"destination" : [ "obj-70", 0 ],
					"source" : [ "obj-71", 0 ]
				}

			}
, 			{
				"patchline" : 				{
					"destination" : [ "obj-70", 0 ],
					"source" : [ "obj-72", 0 ]
				}

			}
, 			{
				"patchline" : 				{
					"destination" : [ "obj-75", 0 ],
					"midpoints" : [ 818.5, 993.5, 1131.5, 993.5, 1131.5, 906.5, 1020.5, 906.5 ],
					"order" : 0,
					"source" : [ "obj-74", 0 ]
				}

			}
, 			{
				"patchline" : 				{
					"destination" : [ "obj-76", 0 ],
					"midpoints" : [ 818.5, 996.5, 794.0, 996.5, 794.0, 903.5, 818.5, 903.5 ],
					"order" : 1,
					"source" : [ "obj-74", 0 ]
				}

			}
, 			{
				"patchline" : 				{
					"destination" : [ "obj-74", 0 ],
					"source" : [ "obj-75", 0 ]
				}

			}
, 			{
				"patchline" : 				{
					"destination" : [ "obj-74", 0 ],
					"source" : [ "obj-76", 0 ]
				}

			}
, 			{
				"patchline" : 				{
					"destination" : [ "obj-9", 0 ],
					"midpoints" : [ 44.0, 396.0, 21.5, 396.0, 21.5, 321.0, 44.0, 321.0 ],
					"source" : [ "obj-8", 0 ]
				}

			}
, 			{
				"patchline" : 				{
					"destination" : [ "obj-8", 0 ],
					"source" : [ "obj-9", 0 ]
				}

			}
 ],
		"dependency_cache" : [ 			{
				"name" : "var.maxpat",
				"bootpath" : "~/Library/Application Support/Cycling '74/Max 8/Examples/max-tricks/send-receive-tricks/lib",
				"patcherrelativepath" : "../../../Library/Application Support/Cycling '74/Max 8/Examples/max-tricks/send-receive-tricks/lib",
				"type" : "JSON",
				"implicit" : 1
			}
, 			{
				"name" : "variline.maxpat",
				"bootpath" : "~/Documents/GITs/atem-control",
				"patcherrelativepath" : ".",
				"type" : "JSON",
				"implicit" : 1
			}
 ],
		"autosave" : 0,
		"styles" : [ 			{
				"name" : "AudioStatus_Menu",
				"default" : 				{
					"bgfillcolor" : 					{
						"type" : "color",
						"color" : [ 0.294118, 0.313726, 0.337255, 1 ],
						"color1" : [ 0.454902, 0.462745, 0.482353, 0.0 ],
						"color2" : [ 0.290196, 0.309804, 0.301961, 1.0 ],
						"angle" : 270.0,
						"proportion" : 0.39,
						"autogradient" : 0
					}

				}
,
				"parentstyle" : "",
				"multi" : 0
			}
 ],
		"selectioncolor" : [ 0.905882352941176, 0.905882352941176, 0.411764705882353, 1.0 ],
		"bgcolor" : [ 0.76078431372549, 0.76078431372549, 0.76078431372549, 1.0 ],
		"editing_bgcolor" : [ 0.76078431372549, 0.76078431372549, 0.76078431372549, 1.0 ]
	}

}
